<?xml version="1.0" encoding="utf-8"?>
<!-- Generator: Adobe Illustrator 27.5.0, SVG Export Plug-In . SVG Version: 6.00 Build 0)  -->
<svg version="1.1" id="Laag_1" xmlns="http://www.w3.org/2000/svg" xmlns:xlink="http://www.w3.org/1999/xlink" x="0px" y="0px"
	 viewBox="0 0 595.3 841.9" style="enable-background:new 0 0 595.3 841.9;" xml:space="preserve">
<style type="text/css">
	.st0{fill:#6D2425;}
	.st1{fill:#D54544;}
</style>
<g>
	<path class="st0" d="M235.5,433.2c1.1,0.4,2.4,0.7,3.7,0.9c1.3,0.2,2.7,0.3,4,0.3c1.8,0,3.2-0.1,4-0.2c0.9-0.2,1.5-0.4,1.7-0.8
		s0.4-0.8,0.4-1.4c0-0.5-0.1-0.9-0.3-1.1c-0.2-0.3-0.6-0.5-1.2-0.7c-0.6-0.2-1.5-0.3-2.6-0.4l-2.5-0.2c-1.9-0.2-3.4-0.6-4.5-1.2
		s-1.8-1.4-2.3-2.5c-0.4-1-0.7-2.3-0.7-3.7c0-1.7,0.4-3.1,1.1-4.2c0.7-1.1,1.8-1.9,3.4-2.4c1.6-0.5,3.7-0.7,6.3-0.7
		c3.4,0,6.2,0.4,8.5,1.3l-0.1,5.2l-0.1,0.2c-2.5-0.9-5.2-1.3-7.9-1.3c-1.3,0-2.3,0.1-3.1,0.2c-0.7,0.1-1.2,0.4-1.5,0.7
		c-0.3,0.3-0.4,0.7-0.4,1.3c0,0.6,0.1,1,0.3,1.3s0.6,0.5,1.2,0.6c0.6,0.1,1.4,0.3,2.6,0.4l2.4,0.3c2,0.2,3.6,0.6,4.7,1.2
		c1.1,0.6,1.9,1.4,2.3,2.4c0.4,1,0.6,2.2,0.6,3.6c0,1.7-0.4,3.1-1.1,4.3c-0.7,1.1-1.9,2-3.5,2.5c-1.6,0.6-3.8,0.8-6.5,0.8
		c-1.8,0-3.4-0.1-4.8-0.3s-2.8-0.5-4.2-0.8v-5.4L235.5,433.2z"/>
	<path class="st0" d="M275.8,438.8c-0.7,0.3-1.7,0.5-3,0.7s-2.8,0.3-4.5,0.3c-2.2,0-4.1-0.3-5.6-0.9s-2.7-1.6-3.5-2.9
		c-0.8-1.4-1.2-3.3-1.2-5.8c0-3.4,0.8-5.8,2.3-7.3s3.9-2.3,7.2-2.3c2.3,0,4.2,0.3,5.5,1s2.3,1.6,2.9,2.8c0.6,1.2,0.9,2.6,0.9,4.3
		c0,0.5,0,1-0.1,1.6c0,0.6-0.1,1.1-0.2,1.6l-0.2,0.2h-12.6c0.2,1.1,0.7,1.9,1.6,2.2s2.3,0.5,4.3,0.5c1.3,0,2.4,0,3.3-0.1
		s1.8-0.2,2.7-0.3l0.2,0.1L275.8,438.8L275.8,438.8z M271.4,428c0-0.6-0.1-1.1-0.3-1.6c-0.2-0.4-0.6-0.8-1.1-1
		c-0.6-0.2-1.4-0.4-2.5-0.4c-1.6,0-2.7,0.3-3.2,0.8s-0.7,1.3-0.7,2.2H271.4z"/>
	<path class="st0" d="M294.5,434v5c-0.6,0.3-1.6,0.4-2.8,0.6c-1.2,0.1-2.6,0.2-4,0.2c-2,0-3.7-0.3-5-0.8c-1.3-0.6-2.3-1.5-3-2.9
		s-1-3.3-1-5.7c0-2.5,0.3-4.5,1.1-5.9c0.7-1.4,1.7-2.4,3.1-2.9c1.4-0.6,3-0.8,4.9-0.8c1.1,0,2.3,0.1,3.6,0.2s2.3,0.4,3.1,0.6v5.1
		l-0.1,0.1c-0.8-0.2-1.6-0.3-2.4-0.3c-0.9-0.1-1.7-0.1-2.6-0.1c-1.7,0-2.9,0.3-3.6,1c-0.7,0.6-1,1.7-1,3.2c0,1.1,0.1,2,0.4,2.6
		s0.8,0.9,1.4,1.1c0.7,0.2,1.6,0.3,2.7,0.3c0.9,0,1.7,0,2.6-0.1c0.8-0.1,1.7-0.2,2.6-0.3L294.5,434z"/>
	<path class="st0" d="M296.6,430.2c0-3.4,0.7-5.9,2.2-7.4s3.9-2.3,7.4-2.3c2.3,0,4.2,0.3,5.6,1s2.4,1.7,3,3.1s0.9,3.3,0.9,5.5
		s-0.3,4.1-0.9,5.5s-1.6,2.4-3,3.1s-3.3,1-5.6,1c-3.5,0-5.9-0.7-7.4-2.2S296.6,433.6,296.6,430.2z M306.2,434.5c1.5,0,2.5-0.3,3-1
		s0.8-1.8,0.8-3.4s-0.3-2.7-0.8-3.3s-1.5-1-3-1c-1.4,0-2.4,0.3-3,1c-0.5,0.7-0.8,1.8-0.8,3.3c0,1.6,0.3,2.8,0.8,3.4
		C303.7,434.2,304.7,434.5,306.2,434.5z"/>
	<path class="st0" d="M325.1,439.4H319v-18.6h5.8l0.3,3.4h0.1c0.4-1.1,1-2,1.9-2.7c0.9-0.6,2.2-0.9,3.8-0.9c2.2,0,3.9,0.6,4.9,1.9
		c1.1,1.2,1.6,3.4,1.6,6.5v10.4h-6.1v-9.3c0-1.4-0.2-2.4-0.7-3.1c-0.4-0.6-1.2-0.9-2.4-0.9c-1.1,0-1.9,0.3-2.4,0.8s-0.7,1.5-0.7,2.8
		L325.1,439.4L325.1,439.4z"/>
	<path class="st0" d="M353.3,439.4l-0.2-2.7h-0.2c-0.4,1-1.1,1.8-1.9,2.3s-2,0.8-3.5,0.8c-2.5,0-4.3-0.7-5.4-2.2
		c-1.1-1.4-1.7-3.6-1.8-6.5c0-2.6,0.2-4.7,0.8-6.2c0.6-1.5,1.4-2.6,2.6-3.3c1.2-0.7,2.7-1,4.6-1c1,0,1.8,0.1,2.6,0.2
		c0.8,0.2,1.4,0.4,1.9,0.7h0.1v-6.3h6.1v24.2H353.3z M349.5,434.5c1,0,1.8-0.3,2.5-1s1-1.7,1-3.2v-4c-0.9-0.4-2.1-0.6-3.3-0.6
		c-1.2,0-2.1,0.3-2.6,0.9s-0.8,1.7-0.8,3.5c0,1.5,0.2,2.6,0.6,3.3C347.3,434.2,348.2,434.5,349.5,434.5z"/>
</g>
<g>
	<path class="st1" d="M369.8,439.4h-6.1v-24.2h10.8c2.4,0,4.4,0.3,5.8,0.9c1.5,0.6,2.5,1.5,3.1,2.9c0.6,1.3,1,3.1,1,5.4
		c0,2.1-0.3,3.9-1,5.2c-0.6,1.3-1.7,2.3-3.1,3c-1.5,0.6-3.4,1-5.8,1h-4.7L369.8,439.4L369.8,439.4z M373.4,420.2h-3.7v8.3h3.7
		c1.8,0,3-0.3,3.6-0.9s0.9-1.7,0.9-3.2s-0.3-2.5-0.9-3.2C376.5,420.5,375.2,420.2,373.4,420.2z"/>
	<path class="st1" d="M393.4,413.8c0.1,0.9,0.1,1.7,0.1,2.3c0,0.4,0,0.7,0,1.1s0,0.8-0.1,1.2c-0.5,0.1-1.1,0.2-1.6,0.2
		c-0.5,0.1-1,0.1-1.5,0.1s-1,0-1.5-0.1s-1-0.1-1.5-0.2c-0.1-0.4-0.1-0.8-0.1-1.2c0-0.4,0-0.7,0-1.1c0-0.3,0-0.7,0-1.1
		s0.1-0.8,0.1-1.3c0.5-0.1,1-0.2,1.5-0.2s1-0.1,1.5-0.1s1,0,1.5,0.1S392.9,413.7,393.4,413.8z M393.4,439.4h-6.1v-18.6h6.1V439.4z"
		/>
	<path class="st1" d="M412.1,434v5c-0.6,0.3-1.6,0.4-2.8,0.6c-1.2,0.1-2.6,0.2-4,0.2c-2,0-3.7-0.3-5-0.8c-1.3-0.6-2.3-1.5-3-2.9
		s-1-3.3-1-5.7c0-2.5,0.3-4.5,1.1-5.9c0.7-1.4,1.7-2.4,3.1-2.9c1.4-0.6,3-0.8,4.9-0.8c1.1,0,2.3,0.1,3.6,0.2
		c1.2,0.2,2.3,0.4,3.1,0.6v5.1l-0.1,0.1c-0.8-0.2-1.6-0.3-2.4-0.3s-1.7-0.1-2.6-0.1c-1.7,0-2.9,0.3-3.6,1c-0.7,0.6-1,1.7-1,3.2
		c0,1.1,0.1,2,0.4,2.6s0.8,0.9,1.4,1.1c0.7,0.2,1.6,0.3,2.7,0.3c0.9,0,1.7,0,2.6-0.1c0.8-0.1,1.7-0.2,2.6-0.3L412.1,434z"/>
	<path class="st1" d="M421.7,439.4h-6.1v-25.7h6.1v15h0.1l4.8-7.9h6.7v0.2l-5.7,8.8v0.2l6.6,9.5h-7l-5.4-8.6h-0.1V439.4z"/>
	<path class="st1" d="M435.3,434.1c2,0.6,4.2,0.8,6.6,0.8c1.2,0,2.1,0,2.6-0.1c0.6-0.1,1-0.2,1.2-0.4s0.3-0.4,0.3-0.7
		c0-0.4-0.2-0.7-0.5-0.8c-0.3-0.1-1-0.2-1.9-0.4l-3-0.6c-1.9-0.4-3.3-1-4.2-1.8c-0.9-0.8-1.3-2.1-1.3-3.7c0-2.2,0.7-3.8,2-4.6
		c1.3-0.8,3.5-1.2,6.4-1.2c1.8,0,3.3,0.1,4.6,0.3c1.3,0.2,2.5,0.4,3.3,0.7l-0.1,4.6l-0.1,0.1c-2.1-0.7-4.3-1-6.8-1
		c-1.2,0-2,0.1-2.5,0.2c-0.5,0.2-0.7,0.5-0.7,1c0,0.3,0.1,0.5,0.2,0.6c0.1,0.2,0.5,0.3,1,0.4s1.3,0.3,2.4,0.5l2.8,0.5
		c1.6,0.3,2.7,0.9,3.4,1.6c0.7,0.8,1.1,2,1.1,3.6c0,1.5-0.3,2.6-0.8,3.5s-1.4,1.5-2.7,1.8s-3,0.5-5.2,0.5c-1.7,0-3.2-0.1-4.6-0.2
		c-1.4-0.2-2.7-0.4-3.8-0.6V434L435.3,434.1z"/>
</g>
<path class="st1" d="M224.9,307.6h2.3c1,0,1.7-0.8,1.7-1.7v-4.2c0-0.9-0.8-1.7-1.7-1.7h-2.3c-1,0-1.7,0.8-1.7,1.7v1.2H221
	c0.7-8,1.9-13.3,1.9-13.3s-8.3,2.3-10.7-1c0,0-2.2-2.4-4.4-2.4c-2.3,0-4.4,2.4-4.4,2.4c-2.3,3.2-10.7,1-10.7,1s1.2,5.4,1.9,13.4
	h-2.2v-1.2c0-0.9-0.8-1.7-1.7-1.7h-2.3c-1,0-1.7,0.8-1.7,1.7v4.2c0,0.9,0.8,1.7,1.7,1.7h2.3c1,0,1.7-0.8,1.7-1.7v-1.2h2.2
	c0.2,3.2,0.3,6.7,0.3,10.5h-2.5v-1.2c0-0.9-0.8-1.7-1.7-1.7h-2.3c-1,0-1.7,0.8-1.7,1.7v4.2c0,0.9,0.8,1.7,1.7,1.7h2.3
	c1,0,1.7-0.8,1.7-1.7v-1.2h2.4c-0.1,3.5-0.4,7.3-1,11h-1.4v-1.2c0-0.9-0.8-1.7-1.7-1.7h-2.3c-1,0-1.7,0.8-1.7,1.7v4.2
	c0,0.9,0.8,1.7,1.7,1.7h2.3c1,0,1.7-0.8,1.7-1.7v-1.2h1.2c-0.5,3-1.1,5.9-2,8.9c6.2,1.7,7,6.9,7,6.9v25.1h0.2v119v2.5v0.5
	c0,0.8,0.7,1.5,1.5,1.5h15c0.8,0,1.5-0.7,1.5-1.5v-3l0,0v-120l0,0v-24.1c0,0,0.8-5.2,7-6.9c-0.9-3-1.5-6-2-9h1.4v1.2
	c0,0.9,0.8,1.7,1.7,1.7h2.3c1,0,1.7-0.8,1.7-1.7v-4.2c0-0.9-0.8-1.7-1.7-1.7h-2.3c-1,0-1.7,0.8-1.7,1.7v1.2h-1.7
	c-0.5-3.6-0.8-7.2-0.9-10.6h2.6v1.2c0,0.9,0.8,1.7,1.7,1.7h2.3c1,0,1.7-0.8,1.7-1.7v-4.2c0-0.9-0.8-1.7-1.7-1.7h-2.3
	c-1,0-1.7,0.8-1.7,1.7v1.2h-2.7c-0.1-3.9,0.1-7.6,0.3-10.8h2.4v1.2C223.2,306.9,224,307.6,224.9,307.6z"/>
<g>
	<path class="st0" d="M198.8,427.4c-23.7,26.8-52.1,52.3-66.1,54.8c-2.6,0.5,4.2,9.7,8.3,9c3.3-0.6,32.5-25.1,83.5-34.2
		c21.4-3.8,32,1.5,32.4,1.1c-1.9-2.5-17.7-7.5-41.3-4c-1.7,0.3-3.8,0.5-6.1,1c-8.7,1.6-20.4,4.3-29.8,8.1
		c4.3-3.5,11.2-9.6,19.1-17.4"/>
	<path class="st0" d="M216.8,426c17.8-20.6,33.2-43.8,26.9-58.9c-3.5-8.5-11.4-11.8-23.6-9.6c-24.2,4.3-53.1,26.7-57.3,43.8
		c-0.5,2.4-0.4,4.3,0.2,5.7c2,4.8,9.1,5.3,13.7,3.2c4.3-2,9-6.1,10.2-8c-2.1,1.4-10.2,6.4-11.8,2.6c-3.1-7.4,27.4-40.6,48.4-44.3
		c5.7-1,10-0.8,12.5,5.2c2.7,6.5-5.8,21.8-19.3,39.8"/>
	<path class="st0" d="M199,445.6"/>
</g>
</svg>
